<svg width="10" height="12" viewBox="0 0 10 12" fill="none" xmlns="http://www.w3.org/2000/svg">
<path d="M6.67739 5.48082L9.0391 3.24882C9.20051 3.08882 9.20051 2.84082 9.0391 2.68082L6.67739 0.448823C6.41403 0.192823 5.95528 0.376823 5.95528 0.728823V2.16882L0.849574 2.16882C0.382329 2.16882 3.79411e-05 2.52882 3.79411e-05 2.96882C3.79411e-05 3.40882 0.382329 3.76882 0.849574 3.76882L5.95528 3.76882V5.20082C5.95528 5.56082 6.41403 5.73682 6.67739 5.48082V5.48082Z" fill="#EF5222"/>
<path d="M6.67739 5.48082L9.0391 3.24882C9.20051 3.08882 9.20051 2.84082 9.0391 2.68082L6.67739 0.448823C6.41403 0.192823 5.95528 0.376823 5.95528 0.728823V2.16882L0.849574 2.16882C0.382329 2.16882 3.79411e-05 2.52882 3.79411e-05 2.96882C3.79411e-05 3.40882 0.382329 3.76882 0.849574 3.76882L5.95528 3.76882V5.20082C5.95528 5.56082 6.41403 5.73682 6.67739 5.48082V5.48082Z" fill="black" fill-opacity="0.05"/>
<path d="M6.67739 11.1517L9.0391 8.91972C9.20051 8.75972 9.20051 8.51172 9.0391 8.35172L6.67739 6.11972C6.41403 5.86372 5.95528 6.04772 5.95528 6.39972V7.83972L0.849574 7.83972C0.382329 7.83972 3.79411e-05 8.19972 3.79411e-05 8.63972C3.79411e-05 9.07972 0.382329 9.43972 0.849574 9.43972H5.95528V10.8717C5.95528 11.2317 6.41403 11.4077 6.67739 11.1517V11.1517Z" fill="#EF5222"/>
<path d="M6.67739 11.1517L9.0391 8.91972C9.20051 8.75972 9.20051 8.51172 9.0391 8.35172L6.67739 6.11972C6.41403 5.86372 5.95528 6.04772 5.95528 6.39972V7.83972L0.849574 7.83972C0.382329 7.83972 3.79411e-05 8.19972 3.79411e-05 8.63972C3.79411e-05 9.07972 0.382329 9.43972 0.849574 9.43972H5.95528V10.8717C5.95528 11.2317 6.41403 11.4077 6.67739 11.1517V11.1517Z" fill="black" fill-opacity="0.05"/>
</svg>
